<?xml version="1.0" standalone="no"?>
<!DOCTYPE svg PUBLIC "-//W3C//DTD SVG 20010904//EN"
 "http://www.w3.org/TR/2001/REC-SVG-20010904/DTD/svg10.dtd">
<svg version="1.0" xmlns="http://www.w3.org/2000/svg"
 width="233.000000pt" height="233.000000pt" viewBox="0 0 233.000000 233.000000"
 preserveAspectRatio="xMidYMid meet">
<metadata>
Created by potrace 1.11, written by Peter Selinger 2001-2013
</metadata>
<g transform="translate(0.000000,233.000000) scale(0.100000,-0.100000)"
fill="#000000" stroke="none">
<path d="M1005 2179 c-211 -30 -443 -153 -593 -314 -470 -502 -332 -1304 278
-1619 681 -352 1500 147 1500 914 0 625 -561 1108 -1185 1019z m251 -100 c203
-28 419 -133 555 -268 186 -187 301 -501 269 -737 -27 -210 -131 -426 -269
-565 -187 -186 -501 -301 -737 -269 -210 27 -426 131 -565 269 -186 187 -301
501 -269 737 35 269 185 526 385 661 156 105 358 175 522 182 17 0 67 -4 109
-10z"/>
<path d="M1125 1964 c-274 -45 -505 -218 -619 -466 -57 -122 -70 -186 -70
-338 0 -151 13 -216 69 -337 102 -222 294 -383 535 -449 91 -25 309 -25 400 0
289 80 506 297 586 586 25 91 25 309 0 400 -79 287 -298 508 -581 584 -60 17
-263 29 -320 20z m270 -120 c133 -35 300 -133 368 -217 69 -85 71 -101 6 -36
-78 77 -176 131 -285 159 -202 52 -423 -10 -574 -160 -150 -151 -212 -372
-160 -574 57 -224 222 -389 446 -446 202 -52 420 9 573 159 65 65 63 49 -6
-36 -68 -85 -232 -181 -373 -219 -84 -22 -216 -22 -300 0 -157 42 -318 143
-396 248 -99 132 -157 296 -157 438 0 101 20 185 72 295 77 163 173 259 336
336 164 77 295 93 450 53z m39 -194 c97 -25 200 -78 255 -133 59 -58 74 -91
19 -40 -173 158 -439 147 -600 -25 -157 -167 -157 -417 0 -584 161 -172 427
-183 600 -25 56 52 40 18 -20 -41 -55 -55 -176 -116 -273 -137 -70 -16 -80
-16 -150 0 -101 22 -219 82 -278 142 -60 59 -120 177 -142 278 -16 70 -16 80
0 150 22 100 82 219 141 277 57 58 159 112 256 138 93 24 99 24 192 0z m6
-165 c0 -2 -20 -13 -44 -24 -63 -28 -131 -94 -163 -160 -37 -75 -40 -200 -6
-273 30 -66 96 -133 161 -165 70 -34 52 -41 -36 -14 -136 41 -202 107 -243
244 l-21 67 21 68 c26 87 70 154 122 189 59 39 209 88 209 68z m42 -131 c-17
-14 -44 -47 -60 -72 -23 -40 -27 -58 -27 -122 0 -64 4 -82 27 -122 16 -25 43
-59 60 -73 l33 -27 -30 7 c-117 26 -202 156 -170 262 22 72 58 118 116 147 68
34 94 34 51 0z m216 -69 c13 -9 28 -39 38 -70 14 -50 14 -60 0 -110 -19 -62
-44 -85 -96 -85 -71 0 -140 69 -140 140 0 97 125 176 198 125z"/>
</g>
</svg>
